<svg 
aria-hidden="true"
    focusable="false"
    class="$CLASS"
 viewBox="0 0 35 35" fill="none" xmlns="http://www.w3.org/2000/svg">
<circle cx="17.5" cy="17.5" r="17" fill="#F5F5F5" stroke="#D9D9D9"/>
<path d="M14.5 9.66663H21.5C24.1667 9.66663 26.3333 11.8333 26.3333 14.5V21.5C26.3333 22.7818 25.8241 24.0112 24.9177 24.9176C24.0112 25.8241 22.7819 26.3333 21.5 26.3333H14.5C11.8333 26.3333 9.66666 24.1666 9.66666 21.5V14.5C9.66666 13.2181 10.1759 11.9887 11.0823 11.0823C11.9887 10.1759 13.2181 9.66663 14.5 9.66663ZM14.3333 11.3333C13.5377 11.3333 12.7746 11.6494 12.212 12.212C11.6494 12.7746 11.3333 13.5376 11.3333 14.3333V21.6666C11.3333 23.325 12.675 24.6666 14.3333 24.6666H21.6667C22.4623 24.6666 23.2254 24.3506 23.788 23.7879C24.3506 23.2253 24.6667 22.4623 24.6667 21.6666V14.3333C24.6667 12.675 23.325 11.3333 21.6667 11.3333H14.3333ZM22.375 12.5833C22.6513 12.5833 22.9162 12.693 23.1116 12.8884C23.3069 13.0837 23.4167 13.3487 23.4167 13.625C23.4167 13.9012 23.3069 14.1662 23.1116 14.3615C22.9162 14.5569 22.6513 14.6666 22.375 14.6666C22.0987 14.6666 21.8338 14.5569 21.6384 14.3615C21.4431 14.1662 21.3333 13.9012 21.3333 13.625C21.3333 13.3487 21.4431 13.0837 21.6384 12.8884C21.8338 12.693 22.0987 12.5833 22.375 12.5833ZM18 13.8333C19.1051 13.8333 20.1649 14.2723 20.9463 15.0537C21.7277 15.8351 22.1667 16.8949 22.1667 18C22.1667 19.105 21.7277 20.1648 20.9463 20.9462C20.1649 21.7276 19.1051 22.1666 18 22.1666C16.8949 22.1666 15.8351 21.7276 15.0537 20.9462C14.2723 20.1648 13.8333 19.105 13.8333 18C13.8333 16.8949 14.2723 15.8351 15.0537 15.0537C15.8351 14.2723 16.8949 13.8333 18 13.8333ZM18 15.5C17.3369 15.5 16.7011 15.7634 16.2322 16.2322C15.7634 16.701 15.5 17.3369 15.5 18C15.5 18.663 15.7634 19.2989 16.2322 19.7677C16.7011 20.2366 17.3369 20.5 18 20.5C18.663 20.5 19.2989 20.2366 19.7678 19.7677C20.2366 19.2989 20.5 18.663 20.5 18C20.5 17.3369 20.2366 16.701 19.7678 16.2322C19.2989 15.7634 18.663 15.5 18 15.5Z" fill="currentColor"/>
</svg>
