<svg 
    aria-hidden="true"
    focusable="false"
    class="$CLASS"
    viewBox="0 0 17 24" fill="none" xmlns="http://www.w3.org/2000/svg">
    <path id="Vector" d="M8.32913 0C12.9215 0 16.6575 3.73661 16.6575 8.32907C16.6575 12.7497 9.10103 23.0779 8.77928 23.5152L8.479 23.9239C8.44388 23.9719 8.38796 24 8.32913 24C8.26939 24 8.21383 23.9719 8.17835 23.9239L7.87825 23.5152C7.55632 23.0779 1.97573e-07 12.7497 1.97573e-07 8.32907C1.97573e-07 3.73661 3.73668 0 8.32913 0ZM8.32913 5.34561C6.68368 5.34561 5.34567 6.68368 5.34567 8.32907C5.34567 9.97361 6.68374 11.3125 8.32913 11.3125C9.97361 11.3125 11.3126 9.97361 11.3126 8.32907C11.3126 6.68368 9.97367 5.34561 8.32913 5.34561Z" fill="currentColor"/>
</svg>
