<svg 
aria-hidden="true"
    focusable="false"
    class="$CLASS"
 viewBox="0 0 35 35" fill="none" xmlns="http://www.w3.org/2000/svg">
<circle cx="17.5" cy="17.5" r="17" fill="#F5F5F5" stroke="#D9D9D9"/>
<path d="M26.7167 13C26.075 13.2917 25.3833 13.4834 24.6667 13.575C25.4 13.1334 25.9667 12.4334 26.2333 11.5917C25.5417 12.0084 24.775 12.3 23.9667 12.4667C23.3083 11.75 22.3833 11.3334 21.3333 11.3334C19.375 11.3334 17.775 12.9334 17.775 14.9084C17.775 15.1917 17.8083 15.4667 17.8667 15.725C14.9 15.575 12.2583 14.15 10.5 11.9917C10.1917 12.5167 10.0167 13.1334 10.0167 13.7834C10.0167 15.025 10.6417 16.125 11.6083 16.75C11.0167 16.75 10.4667 16.5834 9.98333 16.3334V16.3584C9.98333 18.0917 11.2167 19.5417 12.85 19.8667C12.3256 20.0102 11.7751 20.0302 11.2417 19.925C11.468 20.6354 11.9113 21.257 12.5092 21.7025C13.1071 22.1479 13.8295 22.3948 14.575 22.4084C13.3114 23.4087 11.745 23.9495 10.1333 23.9417C9.84999 23.9417 9.56666 23.925 9.28333 23.8917C10.8667 24.9084 12.75 25.5 14.7667 25.5C21.3333 25.5 24.9417 20.05 24.9417 15.325C24.9417 15.1667 24.9417 15.0167 24.9333 14.8584C25.6333 14.3584 26.2333 13.725 26.7167 13Z" fill="currentColor"/>
</svg>
