<svg 
aria-hidden="true"
    focusable="false"
    class="$CLASS"
viewBox="0 0 35 35" fill="none" xmlns="http://www.w3.org/2000/svg">
<circle cx="17.5" cy="17.5" r="17.5" fill="#69BF4A"/>
<path d="M23.875 12.0917C23.111 11.3199 22.201 10.7081 21.198 10.2917C20.1951 9.87537 19.1193 9.66289 18.0333 9.66668C13.4833 9.66668 9.77501 13.375 9.77501 17.925C9.77501 19.3833 10.1583 20.8 10.875 22.05L9.70834 26.3333L14.0833 25.1833C15.2917 25.8417 16.65 26.1917 18.0333 26.1917C22.5833 26.1917 26.2917 22.4833 26.2917 17.9333C26.2917 15.725 25.4333 13.65 23.875 12.0917ZM18.0333 24.7917C16.8 24.7917 15.5917 24.4583 14.5333 23.8333L14.2833 23.6833L11.6833 24.3667L12.375 21.8333L12.2083 21.575C11.5231 20.4808 11.1593 19.216 11.1583 17.925C11.1583 14.1417 14.2417 11.0583 18.025 11.0583C19.8583 11.0583 21.5833 11.775 22.875 13.075C23.5146 13.7116 24.0214 14.4689 24.3662 15.3029C24.7109 16.1368 24.8867 17.0309 24.8833 17.9333C24.9 21.7167 21.8167 24.7917 18.0333 24.7917ZM21.8 19.6583C21.5917 19.5583 20.575 19.0583 20.3917 18.9833C20.2 18.9167 20.0667 18.8833 19.925 19.0833C19.7833 19.2917 19.3917 19.7583 19.275 19.8917C19.1583 20.0333 19.0333 20.05 18.825 19.9417C18.6167 19.8417 17.95 19.6167 17.1667 18.9167C16.55 18.3667 16.1417 17.6917 16.0167 17.4833C15.9 17.275 16 17.1667 16.1083 17.0583C16.2 16.9667 16.3167 16.8167 16.4167 16.7C16.5167 16.5833 16.5583 16.4917 16.625 16.3583C16.6917 16.2167 16.6583 16.1 16.6083 16C16.5583 15.9 16.1417 14.8833 15.975 14.4667C15.8083 14.0667 15.6333 14.1167 15.5083 14.1083H15.1083C14.9667 14.1083 14.75 14.1583 14.5583 14.3667C14.375 14.575 13.8417 15.075 13.8417 16.0917C13.8417 17.1083 14.5833 18.0917 14.6833 18.225C14.7833 18.3667 16.1417 20.45 18.2083 21.3417C18.7 21.5583 19.0833 21.6833 19.3833 21.775C19.875 21.9333 20.325 21.9083 20.6833 21.8583C21.0833 21.8 21.9083 21.3583 22.075 20.875C22.25 20.3917 22.25 19.9833 22.1917 19.8917C22.1333 19.8 22.0083 19.7583 21.8 19.6583Z" fill="currentColor"/>
</svg>
